<svg width="487" height="487" viewBox="0 0 487 487" fill="none" xmlns="http://www.w3.org/2000/svg">
<path d="M426.125 426.125L337.998 337.998M337.998 337.998C353.073 322.924 365.03 305.028 373.189 285.332C381.347 265.637 385.546 244.527 385.546 223.208C385.546 201.89 381.347 180.78 373.189 161.084C365.03 141.389 353.073 123.493 337.998 108.418C322.924 93.344 305.028 81.3863 285.332 73.2281C265.637 65.0698 244.527 60.8708 223.208 60.8708C201.89 60.8708 180.78 65.0698 161.084 73.2281C141.389 81.3863 123.493 93.344 108.418 108.418C77.9742 138.863 60.8708 180.154 60.8708 223.208C60.8708 266.263 77.9742 307.554 108.418 337.998C138.863 368.442 180.154 385.546 223.208 385.546C266.263 385.546 307.554 368.442 337.998 337.998Z" stroke="#999999" stroke-width="16.6667" stroke-linecap="round" stroke-linejoin="round"/>
</svg>
